<svg xmlns="http://www.w3.org/2000/svg" viewBox="-56.25 -140.62 943.9 219.26"><path d="M156.91-84.38L156.91-84.38Q157.25-84.38 157.25-83.35Q157.25-82.34 156.91-82.34L156.91-82.34Q150.96-82.34 145.86-77.83Q140.76-73.32 137.19-64.48L137.19-64.48L104.21 21.71Q104.04 22.39 102.43 22.39Q100.81 22.39 100.47 21.71L100.47 21.71L78.54-25.21L60.69 21.71Q60.52 22.39 58.91 22.39Q57.29 22.39 56.95 21.71L56.95 21.71L13.94-70.26Q11.73-75.19 9.95-77.75Q8.16-80.29 6.04-81.31Q3.91-82.34 0.51-82.34L0.51-82.34Q0-82.34 0-83.35Q0-84.38 0.51-84.38L0.51-84.38Q2.72-84.38 4.17-84.21Q5.61-84.03 7.74-83.95Q9.86-83.87 13.43-83.87L13.43-83.87Q20.23-83.87 24.40-83.95Q28.56-84.03 31.45-84.21Q34.34-84.38 36.55-84.38L36.55-84.38Q37.06-84.38 37.06-83.35Q37.06-82.34 36.55-82.34L36.55-82.34Q29.75-82.34 28.48-79.70Q27.20-77.06 31.11-68.56L31.11-68.56L63.75 0.80L75.99-30.82L57.46-70.26Q54.74-76.22 52.02-79.28Q49.30-82.34 45.56-82.34L45.56-82.34Q45.05-82.34 45.05-83.35Q45.05-84.38 45.56-84.38L45.56-84.38Q47.43-84.38 48.88-84.21Q50.32-84.03 52.11-83.95Q53.89-83.87 57.12-83.87L57.12-83.87Q65.28-83.87 69.11-84.12Q72.93-84.38 75.65-84.38L75.65-84.38Q76.16-84.38 76.16-83.35Q76.16-82.34 75.65-82.34L75.65-82.34Q70.89-82.34 70.72-79.87Q70.55-77.41 74.63-68.56L74.63-68.56L83.98-49.01L90.10-65.16Q93.67-74.18 93.25-78.25Q92.82-82.34 88.06-82.34L88.06-82.34Q87.55-82.34 87.55-83.35Q87.55-84.38 88.06-84.38L88.06-84.38Q89.76-84.38 90.53-84.21Q91.29-84.03 92.99-83.95Q94.69-83.87 99.11-83.87Q103.53-83.87 106.25-84.12Q108.97-84.38 112.88-84.38L112.88-84.38Q113.22-84.38 113.22-83.35Q113.22-82.34 112.88-82.34L112.88-82.34Q107.27-82.34 102.77-78.17Q98.26-74.00 94.69-64.48L94.69-64.48L86.53-43.40L107.44 0.80L132.26-63.98Q135.32-72.31 132.94-77.32Q130.56-82.34 123.25-82.34L123.25-82.34Q122.74-82.34 122.74-83.35Q122.74-84.38 123.25-84.38L123.25-84.38Q127.67-84.38 131.67-84.12Q135.66-83.87 141.78-83.87L141.78-83.87Q146.54-83.87 149.60-84.12Q152.66-84.38 156.91-84.38Z" fill="#c9a96e"/><path d="M227.80 0.40L227.80 0.40Q224.70 0.40 220.10 0.10Q215.50-0.20 211.70-0.20L211.70-0.20Q208.10-0.20 204.90-0.10Q201.70 0 199.20 0L199.20 0Q199 0 199-0.60Q199-1.20 199.20-1.20L199.20-1.20Q202.40-1.20 204.10-1.70Q205.80-2.20 206.35-3.70Q206.90-5.20 206.90-8.10L206.90-8.10L206.90-54.40Q206.90-57.30 206.35-58.75Q205.80-60.20 204.20-60.75Q202.60-61.30 199.30-61.30L199.30-61.30Q199.10-61.30 199.10-61.90Q199.10-62.50 199.30-62.50L199.30-62.50Q201.90-62.50 205-62.35Q208.10-62.20 211.70-62.20L211.70-62.20Q215.20-62.20 219.35-62.45Q223.50-62.70 226.40-62.70L226.40-62.70Q236.90-62.70 244.70-58.70Q252.50-54.70 256.80-47.80Q261.10-40.90 261.10-32.30L261.10-32.30Q261.10-24.80 258.50-18.75Q255.90-12.70 251.25-8.45Q246.60-4.20 240.55-1.90Q234.50 0.40 227.80 0.40ZM226.80-1.60L226.80-1.60Q233.70-1.60 239-4.90Q244.30-8.20 247.35-14.55Q250.40-20.90 250.40-30.10L250.40-30.10Q250.40-38.70 247.60-45.65Q244.80-52.60 239.65-56.65Q234.50-60.70 227.40-60.70L227.40-60.70Q221.50-60.70 218.95-59.60Q216.40-58.50 216.40-54.20L216.40-54.20L216.40-9.20Q216.40-5.30 218.40-3.45Q220.40-1.60 226.80-1.60ZM341.90-1.20L341.90-1.20Q342.30-1.20 342.30-0.60Q342.30 0 341.90 0L341.90 0Q338.90 0 335.75-0.20Q332.60-0.40 329.70-0.40L329.70-0.40Q326.40-0.40 323.95-0.20Q321.50 0 318.50 0L318.50 0Q318.10 0 318.10-0.60Q318.10-1.20 318.50-1.20L318.50-1.20Q323-1.20 323.90-2.80Q324.80-4.40 322.40-9.10L322.40-9.10L314.80-24.50L290.60-24.50L285.80-13.70Q283.20-7.60 285.65-4.40Q288.10-1.20 294-1.20L294-1.20Q294.50-1.20 294.50-0.60Q294.50 0 294 0L294 0Q291 0 288.50-0.20Q286-0.40 282.20-0.40Q278.40-0.40 276.15-0.20Q273.90 0 270.60 0L270.60 0Q270.20 0 270.20-0.60Q270.20-1.20 270.60-1.20L270.60-1.20Q273.30-1.20 275.25-2.30Q277.20-3.40 279.10-6.35Q281-9.30 283.30-14.60L283.30-14.60L304.80-63.10Q305-63.40 305.70-63.40Q306.40-63.40 306.50-63.10L306.50-63.10L331-13.70Q333.30-8.90 335.10-6.15Q336.90-3.40 338.50-2.30Q340.10-1.20 341.90-1.20ZM291.70-27L313.60-27L302.10-50.40L291.70-27ZM383.00-35.10L383.00-35.10Q387.30-34.70 390.80-33.10L390.80-33.10Q395.60-30.90 398.30-27.05Q401.00-23.20 401.00-18.20L401.00-18.20Q401.00-13 398.15-8.75Q395.30-4.50 390.30-2.05Q385.30 0.40 379.00 0.40L379.00 0.40Q376.10 0.40 372.00 0.10Q367.90-0.20 364.50-0.20L364.50-0.20Q361.00-0.20 357.80-0.10Q354.60 0 352.10 0L352.10 0Q351.80 0 351.80-0.60Q351.80-1.20 352.10-1.20L352.10-1.20Q355.20-1.20 356.85-1.70Q358.50-2.20 359.15-3.70Q359.80-5.20 359.80-8.10L359.80-8.10L359.80-54.40Q359.80-57.30 359.20-58.75Q358.60-60.20 356.95-60.75Q355.30-61.30 352.20-61.30L352.20-61.30Q352.00-61.30 352.00-61.90Q352.00-62.50 352.20-62.50L352.20-62.50Q354.70-62.50 357.85-62.35Q361.00-62.20 364.50-62.20L364.50-62.20Q367.30-62.20 370.50-62.50Q373.70-62.80 376.60-62.80L376.60-62.80Q382.60-62.80 386.65-61.25Q390.70-59.70 392.80-56.80Q394.90-53.90 394.90-49.80L394.90-49.80Q394.90-44.20 390.60-39.90L390.60-39.90Q387.70-36.90 383.00-35.10ZM377.40-1.90L377.40-1.90Q384.50-1.90 387.70-5.55Q390.90-9.20 390.90-15.80L390.90-15.80Q390.90-23.20 387.05-27.90Q383.20-32.60 375.40-32.60L375.40-32.60Q373.90-32.60 371.40-32.60L371.40-32.60Q370.40-32.50 369.40-32.40L369.40-32.40L369.40-8.10Q369.40-6 369.90-4.60Q370.40-3.20 372.15-2.55Q373.90-1.90 377.40-1.90ZM374.90-60.80L374.90-60.80Q372.90-60.80 371.65-60.30Q370.40-59.80 369.90-58.40Q369.40-57 369.40-54.20L369.40-54.20L369.40-35.20Q370.40-35.20 371.20-35.20L371.20-35.20Q373.30-35.10 373.50-35.10L373.50-35.10Q379.70-35.10 382.60-39.10Q385.50-43.10 385.50-48.90L385.50-48.90Q385.50-52.60 384.35-55.30Q383.20-58 380.85-59.40Q378.50-60.80 374.90-60.80ZM432.40-54.30L432.40-54.30L432.40-8.50Q432.40-6 432.90-4.70Q433.40-3.40 434.80-3Q436.20-2.60 438.90-2.60L438.90-2.60L444.90-2.60Q452-2.60 456.90-6.60Q461.80-10.60 463.40-17.20L463.40-17.20Q463.50-17.50 464-17.40Q464.50-17.30 464.50-17L464.50-17Q464.20-13.90 463.90-9.55Q463.60-5.20 463.60-1.50L463.60-1.50Q463.60 0 462.10 0L462.10 0L415.30 0Q415.10 0 415.10-0.60Q415.10-1.20 415.30-1.20L415.30-1.20Q418.50-1.20 420.15-1.70Q421.80-2.20 422.35-3.70Q422.90-5.20 422.90-8.10L422.90-8.10L422.90-54.40Q422.90-57.30 422.35-58.75Q421.80-60.20 420.15-60.75Q418.50-61.30 415.30-61.30L415.30-61.30Q415.10-61.30 415.10-61.90Q415.10-62.50 415.30-62.50L415.30-62.50Q417.70-62.50 420.90-62.35Q424.10-62.20 427.60-62.20L427.60-62.20Q431.30-62.20 434.45-62.35Q437.60-62.50 440-62.50L440-62.50Q440.30-62.50 440.30-61.90Q440.30-61.30 440-61.30L440-61.30Q436.80-61.30 435.15-60.75Q433.50-60.20 432.95-58.70Q432.40-57.20 432.40-54.30ZM493.90-54.20L493.90-8.10Q493.90-5.20 494.45-3.70Q495.00-2.20 496.60-1.70Q498.20-1.20 501.50-1.20L501.50-1.20Q501.80-1.20 501.80-0.60Q501.80 0 501.50 0L501.50 0Q499.00 0 495.90-0.10Q492.80-0.20 489.00-0.20L489.00-0.20Q485.50-0.20 482.30-0.10Q479.10 0 476.60 0L476.60 0Q476.30 0 476.30-0.60Q476.30-1.20 476.60-1.20L476.60-1.20Q479.80-1.20 481.50-1.70Q483.20-2.20 483.75-3.70Q484.30-5.20 484.30-8.10L484.30-8.10L484.30-54.40Q484.30-57.30 483.75-58.75Q483.20-60.20 481.50-60.75Q479.80-61.30 476.60-61.30L476.60-61.30Q476.30-61.30 476.30-61.90Q476.30-62.50 476.60-62.50L476.60-62.50Q479.10-62.50 482.30-62.35Q485.50-62.20 489.00-62.20L489.00-62.20Q492.80-62.20 495.95-62.35Q499.10-62.50 501.50-62.50L501.50-62.50Q501.80-62.50 501.80-61.90Q501.80-61.30 501.50-61.30L501.50-61.30Q498.30-61.30 496.65-60.70Q495.00-60.10 494.45-58.60Q493.90-57.10 493.90-54.20L493.90-54.20ZM604.40-62.50L604.40-62.50Q604.60-62.50 604.60-61.90Q604.60-61.30 604.40-61.30L604.40-61.30Q600.90-61.30 597.90-58.65Q594.90-56 592.80-50.80L592.80-50.80L573.40-0.10Q573.30 0.30 572.35 0.30Q571.40 0.30 571.20-0.10L571.20-0.10L558.30-27.70L547.80-0.10Q547.70 0.30 546.75 0.30Q545.80 0.30 545.60-0.10L545.60-0.10L520.30-54.20Q519-57.10 517.95-58.60Q516.90-60.10 515.65-60.70Q514.40-61.30 512.40-61.30L512.40-61.30Q512.10-61.30 512.10-61.90Q512.10-62.50 512.40-62.50L512.40-62.50Q513.70-62.50 514.55-62.40Q515.40-62.30 516.65-62.25Q517.90-62.20 520-62.20L520-62.20Q524-62.20 526.45-62.25Q528.90-62.30 530.60-62.40Q532.30-62.50 533.60-62.50L533.60-62.50Q533.90-62.50 533.90-61.90Q533.90-61.30 533.60-61.30L533.60-61.30Q529.60-61.30 528.85-59.75Q528.10-58.20 530.40-53.20L530.40-53.20L549.60-12.40L556.80-31L545.90-54.20Q544.30-57.70 542.70-59.50Q541.10-61.30 538.90-61.30L538.90-61.30Q538.60-61.30 538.60-61.90Q538.60-62.50 538.90-62.50L538.90-62.50Q540-62.50 540.85-62.40Q541.70-62.30 542.75-62.25Q543.80-62.20 545.70-62.20L545.70-62.20Q550.50-62.20 552.75-62.35Q555-62.50 556.60-62.50L556.60-62.50Q556.90-62.50 556.90-61.90Q556.90-61.30 556.60-61.30L556.60-61.30Q553.80-61.30 553.70-59.85Q553.60-58.40 556-53.20L556-53.20L561.50-41.70L565.10-51.20Q567.20-56.50 566.95-58.90Q566.70-61.30 563.90-61.30L563.90-61.30Q563.60-61.30 563.60-61.90Q563.60-62.50 563.90-62.50L563.90-62.50Q564.90-62.50 565.35-62.40Q565.80-62.30 566.80-62.25Q567.80-62.20 570.40-62.20Q573-62.20 574.60-62.35Q576.20-62.50 578.50-62.50L578.50-62.50Q578.70-62.50 578.70-61.90Q578.70-61.30 578.50-61.30L578.50-61.30Q575.20-61.30 572.55-58.85Q569.90-56.40 567.80-50.80L567.80-50.80L563-38.40L575.30-12.40L589.90-50.50Q591.70-55.40 590.30-58.35Q588.90-61.30 584.60-61.30L584.60-61.30Q584.30-61.30 584.30-61.90Q584.30-62.50 584.60-62.50L584.60-62.50Q587.20-62.50 589.55-62.35Q591.90-62.20 595.50-62.20L595.50-62.20Q598.30-62.20 600.10-62.35Q601.90-62.50 604.40-62.50Z" fill="#f0ece4"/><path d="M669.70-35.10L669.70-35.10Q674-34.70 677.50-33.10L677.50-33.10Q682.30-30.90 685-27.05Q687.70-23.20 687.70-18.20L687.70-18.20Q687.70-13 684.85-8.75Q682-4.50 677-2.05Q672 0.40 665.70 0.40L665.70 0.40Q662.80 0.40 658.70 0.10Q654.60-0.20 651.20-0.20L651.20-0.20Q647.70-0.20 644.50-0.10Q641.30 0 638.80 0L638.80 0Q638.50 0 638.50-0.60Q638.50-1.20 638.80-1.20L638.80-1.20Q641.90-1.20 643.55-1.70Q645.20-2.20 645.85-3.70Q646.50-5.20 646.50-8.10L646.50-8.10L646.50-54.40Q646.50-57.30 645.90-58.75Q645.30-60.20 643.65-60.75Q642-61.30 638.90-61.30L638.90-61.30Q638.70-61.30 638.70-61.90Q638.70-62.50 638.90-62.50L638.90-62.50Q641.40-62.50 644.55-62.35Q647.70-62.20 651.20-62.20L651.20-62.20Q654-62.20 657.20-62.50Q660.40-62.80 663.30-62.80L663.30-62.80Q669.30-62.80 673.35-61.25Q677.40-59.70 679.50-56.80Q681.60-53.90 681.60-49.80L681.60-49.80Q681.60-44.20 677.30-39.90L677.30-39.90Q674.40-36.90 669.70-35.10ZM664.10-1.90L664.10-1.90Q671.20-1.90 674.40-5.55Q677.60-9.20 677.60-15.80L677.60-15.80Q677.60-23.20 673.75-27.90Q669.90-32.60 662.10-32.60L662.10-32.60Q660.60-32.60 658.10-32.60L658.10-32.60Q657.10-32.50 656.10-32.40L656.10-32.40L656.10-8.10Q656.10-6 656.60-4.60Q657.10-3.20 658.85-2.55Q660.60-1.90 664.10-1.90ZM661.60-60.80L661.60-60.80Q659.60-60.80 658.35-60.30Q657.10-59.80 656.60-58.40Q656.10-57 656.10-54.20L656.10-54.20L656.10-35.20Q657.10-35.20 657.90-35.20L657.90-35.20Q660-35.10 660.20-35.10L660.20-35.10Q666.40-35.10 669.30-39.10Q672.20-43.10 672.20-48.90L672.20-48.90Q672.20-52.60 671.05-55.30Q669.90-58 667.55-59.40Q665.20-60.80 661.60-60.80ZM719.60-54.20L719.60-8.50Q719.60-5.50 720.30-3.95Q721.00-2.40 723.25-1.80Q725.50-1.20 730.00-1.20L730.00-1.20Q730.30-1.20 730.30-0.60Q730.30 0 730.00 0L730.00 0Q726.80 0 723.05-0.10Q719.30-0.20 714.90-0.20L714.90-0.20Q711.40-0.20 708.20-0.10Q705.00 0 702.50 0L702.50 0Q702.20 0 702.20-0.60Q702.20-1.20 702.50-1.20L702.50-1.20Q705.80-1.20 707.40-1.70Q709.00-2.20 709.55-3.70Q710.10-5.20 710.10-8.10L710.10-8.10L710.10-54.40Q710.10-57.30 709.55-58.75Q709.00-60.20 707.40-60.75Q705.80-61.30 702.50-61.30L702.50-61.30Q702.20-61.30 702.20-61.90Q702.20-62.50 702.50-62.50L702.50-62.50Q705.00-62.50 708.15-62.35Q711.30-62.20 714.80-62.20L714.80-62.20Q717.20-62.20 721.05-62.50Q724.90-62.80 728.50-62.80L728.50-62.80Q734.60-62.80 739.35-61.15Q744.10-59.50 746.90-55.90Q749.70-52.30 749.90-46.40L749.90-46.40Q750.00-41.20 748.10-37.40Q746.20-33.60 742.95-31.15Q739.70-28.70 735.80-27.45Q731.90-26.20 728.00-26.20L728.00-26.20Q726.90-26.20 725.65-26.30Q724.40-26.40 723.20-26.70L723.20-26.70Q722.90-26.80 723.00-27.50L723.00-27.50Q723.10-27.90 723.30-28L723.30-28Q723.40-28 723.50-28L723.50-28Q724.30-27.80 725.30-27.70Q726.30-27.60 727.00-27.60L727.00-27.60Q730.30-27.60 733.10-29.40Q735.90-31.20 737.65-34.90Q739.40-38.60 739.40-44.20L739.40-44.20Q739.40-49.50 737.70-53.20Q736.00-56.90 732.95-58.85Q729.90-60.80 725.50-60.80L725.50-60.80Q723.20-60.80 721.90-60.35Q720.60-59.90 720.10-58.50Q719.60-57.10 719.60-54.20L719.60-54.20ZM796.30 1.20L796.30 1.20Q789.10 1.20 783.25-1.35Q777.40-3.90 773.25-8.40Q769.10-12.90 766.85-18.75Q764.60-24.60 764.60-31.20L764.60-31.20Q764.60-39.30 767.75-45.40Q770.90-51.50 776.10-55.55Q781.30-59.60 787.50-61.60Q793.70-63.60 799.80-63.60L799.80-63.60Q807.20-63.60 813.05-60.95Q818.90-58.30 823-53.80Q827.10-49.30 829.25-43.60Q831.40-37.90 831.40-31.90L831.40-31.90Q831.40-24.90 828.60-18.90Q825.80-12.90 820.95-8.40Q816.10-3.90 809.75-1.35Q803.40 1.20 796.30 1.20ZM799.70-1.20L799.70-1.20Q805.70-1.20 810.45-4.40Q815.20-7.60 817.95-13.85Q820.70-20.10 820.70-29L820.70-29Q820.70-38.30 817.70-45.50Q814.70-52.70 809.10-56.85Q803.50-61 795.70-61L795.70-61Q786-61 780.65-54.05Q775.30-47.10 775.30-34.80L775.30-34.80Q775.30-27.60 777.10-21.45Q778.90-15.30 782.15-10.70Q785.40-6.10 789.85-3.65Q794.30-1.20 799.70-1.20Z" fill="#c9a96e"/></svg>